<svg version="1.1" id="Layer_1" xmlns="http://www.w3.org/2000/svg" xmlns:xlink="http://www.w3.org/1999/xlink" x="0px" y="0px"
width="24" height="24"	 viewBox="0 0 511.999 511.999" style="enable-background:new 0 0 511.999 511.999;" xml:space="preserve">
<g>
	<g>
		<path d="M158.35,340.535c-47.272,0-85.731,38.459-85.731,85.733s38.459,85.731,85.731,85.731
			c47.272,0,85.731-38.459,85.731-85.731S205.623,340.535,158.35,340.535z M158.35,492.825c-36.699,0-66.556-29.857-66.556-66.556
			s29.857-66.557,66.556-66.557c36.699,0,66.556,29.857,66.556,66.557S195.049,492.825,158.35,492.825z"/>
	</g>
</g>
<g>
	<g>
		<path d="M158.35,380.863c-25.035,0-45.404,20.368-45.404,45.404c0,25.035,20.369,45.404,45.404,45.404
			c25.035,0,45.404-20.368,45.404-45.404C203.754,401.231,183.385,380.863,158.35,380.863z M158.35,452.497
			c-14.462,0-26.229-11.766-26.229-26.229s11.766-26.229,26.229-26.229s26.229,11.767,26.229,26.229
			C184.579,440.729,172.813,452.497,158.35,452.497z"/>
	</g>
</g>
<g>
	<g>
		<path d="M125.078,0H75.861c-5.296,0-9.588,4.293-9.588,9.588s4.291,9.588,9.588,9.588h49.218c13.06,0,23.684,10.624,23.684,23.684
			v275.304c0,5.295,4.291,9.588,9.588,9.588c5.296,0,9.588-4.293,9.588-9.588V42.859C167.938,19.226,148.711,0,125.078,0z"/>
	</g>
</g>
<g>
	<g>
		<path d="M401.59,416.68H266.454c-5.296,0-9.588,4.293-9.588,9.588s4.291,9.588,9.588,9.588h135.137
			c5.296,0,9.588-4.293,9.588-9.588S406.886,416.68,401.59,416.68z"/>
	</g>
</g>
<g>
	<g>
		<path d="M436.138,102.239H199.244c-5.296,0-9.588,4.293-9.588,9.588v36.771c0,5.295,4.291,9.588,9.588,9.588
			s9.588-4.293,9.588-9.588v-27.183h217.718v72.833H208.832v-13.69c0-5.295-4.291-9.588-9.588-9.588s-9.588,4.293-9.588,9.588
			v146.22c0,5.295,4.291,9.588,9.588,9.588s9.588-4.293,9.588-9.588v-20.289h171.851c5.296,0,9.588-4.293,9.588-9.588
			s-4.291-9.588-9.588-9.588H208.832v-73.892h217.718v73.89h-13.908c-5.296,0-9.588,4.293-9.588,9.588s4.291,9.588,9.588,9.588
			h13.908v72.833H259.98c-5.296,0-9.588,4.293-9.588,9.588s4.291,9.588,9.588,9.588h176.158c5.296,0,9.588-4.293,9.588-9.588
			v-277.08C445.726,106.53,441.433,102.239,436.138,102.239z"/>
	</g>
</g>
<g>
</g>
<g>
</g>
<g>
</g>
<g>
</g>
<g>
</g>
<g>
</g>
<g>
</g>
<g>
</g>
<g>
</g>
<g>
</g>
<g>
</g>
<g>
</g>
<g>
</g>
<g>
</g>
<g>
</g>
</svg>
