<svg xmlns="http://www.w3.org/2000/svg" fill-rule="evenodd" stroke-linejoin="round" stroke-miterlimit="2" clip-rule="evenodd" width="24" height="24" viewBox="0 0 101 101"><path d="M40.359,16.925l-26.599,0c-2.03,0 -3.724,1.55 -3.904,3.573c-0,0 -4.335,48.704 -6.005,67.477c-0.263,2.959 0.729,5.893 2.734,8.084c2.006,2.192 4.84,3.441 7.81,3.441l55.506,-0c2.97,-0 5.805,-1.249 7.81,-3.441c2.005,-2.191 2.998,-5.125 2.734,-8.084l-4.256,-47.829l11.794,-0c5.086,-0 9.208,-4.122 9.208,-9.208l-0,-20.23c-0,-5.086 -4.122,-9.208 -9.208,-9.208l-38.416,-0c-5.086,-0 -9.208,4.122 -9.208,9.208l-0,6.217Zm-0,3.92l-26.599,-0c-0,-0 -4.334,48.705 -6.005,67.477c-0.165,1.864 0.459,3.711 1.722,5.091c1.263,1.38 3.048,2.167 4.918,2.167l55.506,0c1.87,0 3.655,-0.787 4.918,-2.167c1.263,-1.38 1.888,-3.227 1.722,-5.091l-4.035,-45.341l-3.227,3.912c-1.126,1.366 -3.028,1.807 -4.641,1.077c-1.612,-0.73 -2.535,-2.45 -2.252,-4.198l0.587,-3.626l-3.624,-0c-0.087,3.666 -1.582,7.164 -4.181,9.763c-2.679,2.68 -6.313,4.185 -10.102,4.185l-5.836,-0c-3.789,-0 -7.423,-1.505 -10.102,-4.185c-2.679,-2.679 -4.185,-6.313 -4.185,-10.102l-0,-7.101c-0,-1.081 0.877,-1.958 1.959,-1.958l0.003,-0c1.082,-0 1.958,0.877 1.958,1.958l-0,7.101c-0,2.749 1.093,5.386 3.037,7.33c1.944,1.945 4.581,3.037 7.33,3.037l5.836,-0c2.749,-0 5.386,-1.092 7.33,-3.037c1.864,-1.864 2.945,-4.365 3.031,-6.991l-5.86,-0c-5.086,-0 -9.208,-4.122 -9.208,-9.208l-0,-10.093Zm27.22,15.381l-1.324,8.173l6.74,-8.173l14.988,-0c2.921,-0 5.288,-2.367 5.288,-5.288l-0,-20.23c-0,-2.921 -2.367,-5.288 -5.288,-5.288l-38.416,-0c-2.921,-0 -5.288,2.367 -5.288,5.288l-0,20.23c-0,2.921 2.367,5.288 5.288,5.288l18.012,-0Zm1.196,-26.435c-3.707,-2.251 -8.397,-1.565 -11.073,0.655c-3.355,2.784 -4.214,8.318 -0.879,13.886c1.766,3.126 6.231,6.443 10.055,8.558c1.18,0.652 2.614,0.652 3.794,-0c3.81,-2.107 8.256,-5.407 10.061,-8.569c3.328,-5.56 2.469,-11.092 -0.886,-13.875c-2.675,-2.22 -7.365,-2.906 -11.072,-0.655Zm-0,5.449c2.142,-3.554 6.427,-3.554 8.57,-1.777c2.142,1.777 2.142,5.332 -0,8.887c-1.5,2.666 -5.356,5.332 -8.57,7.109c-3.214,-1.777 -7.07,-4.443 -8.57,-7.109c-2.142,-3.555 -2.142,-7.11 -0,-8.887c2.143,-1.777 6.428,-1.777 8.57,1.777Z"/></svg>